<svg width="142" height="44" viewBox="0 0 142 44" fill="none" xmlns="http://www.w3.org/2000/svg">
<path d="M74.2435 13.451C76.5974 15.5689 77.7715 18.3771 77.7715 21.8756C77.7715 25.374 76.5974 28.2117 74.2435 30.3886C71.8896 32.5656 68.9929 33.6511 65.5535 33.6511C62.1435 33.6511 59.2586 32.5656 56.9047 30.3886C54.5508 28.2117 53.3768 25.374 53.3768 21.8756C53.3768 18.3771 54.5508 15.5689 56.9047 13.451C59.2586 11.3331 62.1376 10.277 65.5535 10.277C68.9929 10.277 71.8896 11.339 74.2435 13.451ZM70.8041 21.8815C70.8041 20.383 70.3321 19.0733 69.3941 17.9583C68.4502 16.8433 67.1758 16.2828 65.5535 16.2828C63.937 16.2828 62.6686 16.8314 61.76 17.9347C60.8456 19.0379 60.3913 20.3535 60.3913 21.8815C60.3913 23.4095 60.8574 24.7428 61.7836 25.8755C62.7099 27.0082 63.9842 27.5746 65.6007 27.5746C67.2171 27.5746 68.4915 27.0082 69.4177 25.8755C70.338 24.7428 70.8041 23.4095 70.8041 21.8815Z" fill="white"/>
<path d="M103.671 30.8783C103.671 35.0552 102.526 38.2056 100.231 40.3412C97.9362 42.471 94.774 43.5388 90.7446 43.5388C88.7741 43.5388 86.7565 43.2379 84.7034 42.6361C82.6445 42.0344 80.8923 41.1848 79.4528 40.0993L83.0693 34.9372C85.1872 36.7897 87.6119 37.7159 90.3493 37.7159C92.4083 37.7159 93.9598 37.1672 95.0041 36.064C96.0483 34.9608 96.5675 33.4682 96.5675 31.5863V30.2648H96.4377C94.9392 32.2057 92.715 33.1791 89.7771 33.1791C86.5736 33.1791 84.0191 32.0936 82.1253 29.9167C80.2257 27.7397 79.2817 25.0613 79.2817 21.8874C79.2817 18.7134 80.2316 15.9996 82.1253 13.746C84.025 11.4982 86.5559 10.3714 89.7358 10.3714C92.8802 10.3714 95.2224 11.5159 96.7503 13.8109H96.8388V10.985H103.676V30.8783H103.671ZM95.3285 25.8047C96.2961 24.7192 96.7857 23.3918 96.7857 21.8343C96.7857 20.2768 96.2902 18.9612 95.3108 17.8875C94.3256 16.8138 93.0395 16.2769 91.4525 16.2769C89.8656 16.2769 88.6089 16.8078 87.6827 17.8639C86.7565 18.9199 86.2904 20.2473 86.2904 21.8343C86.2904 23.3623 86.7624 24.6779 87.7004 25.7811C88.6384 26.8843 89.8892 27.433 91.4525 27.433C93.0631 27.4389 94.361 26.8961 95.3285 25.8047Z" fill="white"/>
<path d="M115.269 3.97041C115.269 5.08542 114.862 6.02935 114.054 6.79629C113.246 7.56324 112.266 7.94081 111.122 7.94081C109.977 7.94081 108.998 7.55144 108.19 6.7727C107.381 5.99396 106.974 5.06183 106.974 3.97041C106.974 2.91439 107.375 1.98225 108.19 1.19171C108.998 0.395269 109.977 0 111.122 0C112.266 0 113.246 0.389373 114.054 1.16812C114.868 1.94686 115.269 2.87899 115.269 3.97041ZM114.738 32.955H107.505V10.985H114.738V32.955Z" fill="white"/>
<path d="M142 32.955H133.487L128.767 26.2059L123.912 32.955H115.529L124.307 21.439L116.366 10.985H124.791L128.891 16.8491L133.039 10.985H141.198L133.304 21.439L142 32.955Z" fill="white"/>
<path d="M26.0382 33.657C23.7314 33.657 21.5899 33.657 19.1593 33.657C19.1593 32.6659 19.1593 31.6747 19.1593 30.6836C19.1593 27.4447 19.1711 24.2118 19.1534 20.9729C19.1416 18.2355 17.5487 16.5778 15.0296 16.6249C12.5518 16.6721 11.0238 18.2886 11.012 20.9316C10.9943 25.1203 11.0061 29.3149 11.0061 33.6157C8.63447 33.6157 6.40443 33.6157 4.1685 33.6157C4.1685 28.5126 3.92662 23.4625 4.24519 18.4479C4.49298 14.4657 7.90292 11.3684 12.4869 10.5543C16.0974 9.91125 19.6254 10.3183 22.6341 12.7607C24.5751 14.3359 25.9084 16.3654 25.9851 18.8373C26.1503 23.7044 26.0382 28.5834 26.0382 33.657Z" fill="white"/>
<path d="M0.298408 3.97041C5.13605 3.92911 7.87934 7.26826 6.90002 11.864C2.29836 12.4068 -1.04079 8.45408 0.298408 3.97041Z" fill="white"/>
<path d="M29.1237 10.277C31.4127 10.277 33.5365 10.277 35.9436 10.277C35.9436 11.2564 35.9436 12.2416 35.9436 13.2268C35.9436 16.4362 35.9318 19.6455 35.9495 22.8549C35.9613 25.5687 37.5364 27.2147 40.0438 27.1675C42.498 27.1262 44.0142 25.5156 44.026 22.8962C44.0437 18.7429 44.0319 14.5837 44.0319 10.3183C46.3858 10.3183 48.5981 10.3183 50.8164 10.3183C50.8164 15.3802 51.0523 20.3889 50.7397 25.3622C50.4919 29.3149 47.1114 32.3827 42.5629 33.1909C38.9818 33.8281 35.4834 33.4269 32.4982 31.0022C30.575 29.4447 29.2535 27.4271 29.1709 24.9728C29.0116 20.1529 29.1237 15.3094 29.1237 10.277Z" fill="white"/>
</svg>
